<mxfile host="app.diagrams.net" modified="2022-05-07T19:27:32.121Z" agent="5.0 (Windows NT 10.0; Win64; x64) AppleWebKit/537.36 (KHTML, like Gecko) Chrome/100.0.4896.127 Safari/537.36" etag="PFWVvGFP1auqeeNBO92n" version="18.0.2" type="github">
  <diagram id="prtHgNgQTEPvFCAcTncT" name="Page-1">
    <mxGraphModel dx="877" dy="371" grid="1" gridSize="10" guides="1" tooltips="1" connect="1" arrows="1" fold="1" page="1" pageScale="1" pageWidth="827" pageHeight="1169" math="0" shadow="0">
      <root>
        <mxCell id="0" />
        <mxCell id="1" parent="0" />
        <mxCell id="hM5iM_jhT2QwWctelHCm-32" style="edgeStyle=orthogonalEdgeStyle;rounded=0;orthogonalLoop=1;jettySize=auto;html=1;exitX=0.5;exitY=1;exitDx=0;exitDy=0;entryX=0.5;entryY=0;entryDx=0;entryDy=0;strokeWidth=1;" edge="1" parent="1" source="hM5iM_jhT2QwWctelHCm-1" target="hM5iM_jhT2QwWctelHCm-7">
          <mxGeometry relative="1" as="geometry" />
        </mxCell>
        <mxCell id="hM5iM_jhT2QwWctelHCm-1" value="Tokenization Service" style="rounded=0;whiteSpace=wrap;html=1;" vertex="1" parent="1">
          <mxGeometry x="400" y="590" width="120" height="60" as="geometry" />
        </mxCell>
        <mxCell id="hM5iM_jhT2QwWctelHCm-10" style="edgeStyle=orthogonalEdgeStyle;rounded=0;orthogonalLoop=1;jettySize=auto;html=1;exitX=1;exitY=0.25;exitDx=0;exitDy=0;entryX=0;entryY=0.5;entryDx=0;entryDy=0;" edge="1" parent="1" source="hM5iM_jhT2QwWctelHCm-2" target="hM5iM_jhT2QwWctelHCm-8">
          <mxGeometry relative="1" as="geometry" />
        </mxCell>
        <mxCell id="hM5iM_jhT2QwWctelHCm-11" style="edgeStyle=orthogonalEdgeStyle;rounded=0;orthogonalLoop=1;jettySize=auto;html=1;exitX=1;exitY=0.5;exitDx=0;exitDy=0;entryX=0;entryY=0.5;entryDx=0;entryDy=0;" edge="1" parent="1" source="hM5iM_jhT2QwWctelHCm-2" target="hM5iM_jhT2QwWctelHCm-1">
          <mxGeometry relative="1" as="geometry" />
        </mxCell>
        <mxCell id="hM5iM_jhT2QwWctelHCm-12" style="edgeStyle=orthogonalEdgeStyle;rounded=0;orthogonalLoop=1;jettySize=auto;html=1;exitX=1;exitY=0.75;exitDx=0;exitDy=0;entryX=0;entryY=0.5;entryDx=0;entryDy=0;" edge="1" parent="1" source="hM5iM_jhT2QwWctelHCm-2" target="hM5iM_jhT2QwWctelHCm-7">
          <mxGeometry relative="1" as="geometry" />
        </mxCell>
        <mxCell id="hM5iM_jhT2QwWctelHCm-2" value="API Gateway" style="rounded=0;whiteSpace=wrap;html=1;" vertex="1" parent="1">
          <mxGeometry x="120" y="590" width="120" height="60" as="geometry" />
        </mxCell>
        <mxCell id="hM5iM_jhT2QwWctelHCm-30" style="edgeStyle=orthogonalEdgeStyle;rounded=0;orthogonalLoop=1;jettySize=auto;html=1;exitX=1;exitY=0.5;exitDx=0;exitDy=0;entryX=0.5;entryY=1;entryDx=0;entryDy=0;strokeWidth=1;" edge="1" parent="1" source="hM5iM_jhT2QwWctelHCm-7" target="hM5iM_jhT2QwWctelHCm-35">
          <mxGeometry relative="1" as="geometry" />
        </mxCell>
        <mxCell id="hM5iM_jhT2QwWctelHCm-31" value="Encryption, Decryption&lt;br&gt;With Key generated&lt;br&gt;KMS" style="edgeLabel;html=1;align=center;verticalAlign=middle;resizable=0;points=[];" vertex="1" connectable="0" parent="hM5iM_jhT2QwWctelHCm-30">
          <mxGeometry x="-0.7628" y="-3" relative="1" as="geometry">
            <mxPoint x="49" y="-3" as="offset" />
          </mxGeometry>
        </mxCell>
        <mxCell id="hM5iM_jhT2QwWctelHCm-7" value="Encryption, Decryption, Digital Signing, Validation Service" style="rounded=0;whiteSpace=wrap;html=1;" vertex="1" parent="1">
          <mxGeometry x="400" y="720" width="120" height="60" as="geometry" />
        </mxCell>
        <mxCell id="hM5iM_jhT2QwWctelHCm-44" style="edgeStyle=orthogonalEdgeStyle;rounded=0;orthogonalLoop=1;jettySize=auto;html=1;exitX=1;exitY=0.5;exitDx=0;exitDy=0;entryX=0.5;entryY=0;entryDx=0;entryDy=0;strokeWidth=1;" edge="1" parent="1" source="hM5iM_jhT2QwWctelHCm-8" target="hM5iM_jhT2QwWctelHCm-35">
          <mxGeometry relative="1" as="geometry" />
        </mxCell>
        <mxCell id="hM5iM_jhT2QwWctelHCm-45" value="CRUD ops for Keys with HSM" style="edgeLabel;html=1;align=center;verticalAlign=middle;resizable=0;points=[];" vertex="1" connectable="0" parent="hM5iM_jhT2QwWctelHCm-44">
          <mxGeometry x="-0.5383" relative="1" as="geometry">
            <mxPoint x="48" as="offset" />
          </mxGeometry>
        </mxCell>
        <mxCell id="hM5iM_jhT2QwWctelHCm-8" value="Key, Certificate Management&lt;br&gt;Service" style="rounded=0;whiteSpace=wrap;html=1;" vertex="1" parent="1">
          <mxGeometry x="400" y="460" width="120" height="60" as="geometry" />
        </mxCell>
        <mxCell id="hM5iM_jhT2QwWctelHCm-13" value="Soft HSM" style="rounded=0;whiteSpace=wrap;html=1;" vertex="1" parent="1">
          <mxGeometry x="820" y="590" width="120" height="60" as="geometry" />
        </mxCell>
        <mxCell id="hM5iM_jhT2QwWctelHCm-14" value="Service Registry" style="rounded=0;whiteSpace=wrap;html=1;" vertex="1" parent="1">
          <mxGeometry x="70" y="380" width="120" height="60" as="geometry" />
        </mxCell>
        <mxCell id="hM5iM_jhT2QwWctelHCm-15" value="" style="endArrow=none;dashed=1;html=1;dashPattern=1 3;strokeWidth=0;rounded=0;exitX=1;exitY=0.5;exitDx=0;exitDy=0;entryX=0;entryY=0.5;entryDx=0;entryDy=0;" edge="1" parent="1" source="hM5iM_jhT2QwWctelHCm-14" target="hM5iM_jhT2QwWctelHCm-7">
          <mxGeometry width="50" height="50" relative="1" as="geometry">
            <mxPoint x="190" y="530" as="sourcePoint" />
            <mxPoint x="440" y="540" as="targetPoint" />
          </mxGeometry>
        </mxCell>
        <mxCell id="hM5iM_jhT2QwWctelHCm-18" value="Register" style="edgeLabel;html=1;align=center;verticalAlign=middle;resizable=0;points=[];" vertex="1" connectable="0" parent="hM5iM_jhT2QwWctelHCm-15">
          <mxGeometry x="-0.1708" y="2" relative="1" as="geometry">
            <mxPoint as="offset" />
          </mxGeometry>
        </mxCell>
        <mxCell id="hM5iM_jhT2QwWctelHCm-19" value="" style="endArrow=none;dashed=1;html=1;dashPattern=1 3;strokeWidth=0;rounded=0;exitX=1;exitY=0.5;exitDx=0;exitDy=0;entryX=0;entryY=0.5;entryDx=0;entryDy=0;" edge="1" parent="1" source="hM5iM_jhT2QwWctelHCm-14" target="hM5iM_jhT2QwWctelHCm-1">
          <mxGeometry width="50" height="50" relative="1" as="geometry">
            <mxPoint x="250" y="430" as="sourcePoint" />
            <mxPoint x="410" y="500" as="targetPoint" />
          </mxGeometry>
        </mxCell>
        <mxCell id="hM5iM_jhT2QwWctelHCm-20" value="Register" style="edgeLabel;html=1;align=center;verticalAlign=middle;resizable=0;points=[];" vertex="1" connectable="0" parent="hM5iM_jhT2QwWctelHCm-19">
          <mxGeometry x="-0.1708" y="2" relative="1" as="geometry">
            <mxPoint as="offset" />
          </mxGeometry>
        </mxCell>
        <mxCell id="hM5iM_jhT2QwWctelHCm-24" value="" style="endArrow=none;dashed=1;html=1;dashPattern=1 3;strokeWidth=0;rounded=0;exitX=1;exitY=0.5;exitDx=0;exitDy=0;entryX=0;entryY=0.5;entryDx=0;entryDy=0;" edge="1" parent="1" source="hM5iM_jhT2QwWctelHCm-14" target="hM5iM_jhT2QwWctelHCm-8">
          <mxGeometry width="50" height="50" relative="1" as="geometry">
            <mxPoint x="250" y="430" as="sourcePoint" />
            <mxPoint x="410" y="630" as="targetPoint" />
          </mxGeometry>
        </mxCell>
        <mxCell id="hM5iM_jhT2QwWctelHCm-25" value="Register" style="edgeLabel;html=1;align=center;verticalAlign=middle;resizable=0;points=[];" vertex="1" connectable="0" parent="hM5iM_jhT2QwWctelHCm-24">
          <mxGeometry x="-0.1708" y="2" relative="1" as="geometry">
            <mxPoint as="offset" />
          </mxGeometry>
        </mxCell>
        <mxCell id="hM5iM_jhT2QwWctelHCm-40" style="edgeStyle=orthogonalEdgeStyle;rounded=0;orthogonalLoop=1;jettySize=auto;html=1;exitX=1;exitY=0.5;exitDx=0;exitDy=0;entryX=0;entryY=0.5;entryDx=0;entryDy=0;strokeWidth=1;" edge="1" parent="1" source="hM5iM_jhT2QwWctelHCm-35" target="hM5iM_jhT2QwWctelHCm-39">
          <mxGeometry relative="1" as="geometry" />
        </mxCell>
        <mxCell id="hM5iM_jhT2QwWctelHCm-42" style="edgeStyle=orthogonalEdgeStyle;rounded=0;orthogonalLoop=1;jettySize=auto;html=1;exitX=1;exitY=0.5;exitDx=0;exitDy=0;entryX=0;entryY=0.5;entryDx=0;entryDy=0;strokeWidth=1;" edge="1" parent="1" source="hM5iM_jhT2QwWctelHCm-35" target="hM5iM_jhT2QwWctelHCm-41">
          <mxGeometry relative="1" as="geometry" />
        </mxCell>
        <mxCell id="hM5iM_jhT2QwWctelHCm-43" style="edgeStyle=orthogonalEdgeStyle;rounded=0;orthogonalLoop=1;jettySize=auto;html=1;exitX=1;exitY=0.5;exitDx=0;exitDy=0;strokeWidth=1;" edge="1" parent="1" source="hM5iM_jhT2QwWctelHCm-35">
          <mxGeometry relative="1" as="geometry">
            <mxPoint x="820" y="620" as="targetPoint" />
          </mxGeometry>
        </mxCell>
        <mxCell id="hM5iM_jhT2QwWctelHCm-35" value="HSM Connector" style="rounded=0;whiteSpace=wrap;html=1;" vertex="1" parent="1">
          <mxGeometry x="630" y="590" width="120" height="60" as="geometry" />
        </mxCell>
        <mxCell id="hM5iM_jhT2QwWctelHCm-39" value="Hardware HSM" style="rounded=0;whiteSpace=wrap;html=1;" vertex="1" parent="1">
          <mxGeometry x="820" y="480" width="120" height="60" as="geometry" />
        </mxCell>
        <mxCell id="hM5iM_jhT2QwWctelHCm-41" value="Cloud HSM" style="rounded=0;whiteSpace=wrap;html=1;" vertex="1" parent="1">
          <mxGeometry x="820" y="720" width="120" height="60" as="geometry" />
        </mxCell>
        <mxCell id="hM5iM_jhT2QwWctelHCm-46" value="" style="endArrow=none;dashed=1;html=1;dashPattern=1 3;strokeWidth=0;rounded=0;entryX=0;entryY=0.5;entryDx=0;entryDy=0;exitX=1;exitY=0.5;exitDx=0;exitDy=0;" edge="1" parent="1" source="hM5iM_jhT2QwWctelHCm-14" target="hM5iM_jhT2QwWctelHCm-35">
          <mxGeometry width="50" height="50" relative="1" as="geometry">
            <mxPoint x="200" y="420" as="sourcePoint" />
            <mxPoint x="620" y="610" as="targetPoint" />
          </mxGeometry>
        </mxCell>
      </root>
    </mxGraphModel>
  </diagram>
</mxfile>
